<svg xmlns="http://www.w3.org/2000/svg" width="18" height="13" viewBox="0 0 18 13">
    <g fill="none" fill-rule="evenodd">
        <path d="M0 0L24 0 24 24 0 24z" transform="translate(-3 -6)"/>
        <path fill="#989898" fill-rule="nonzero" d="M4 17h16c.55 0 1 .45 1 1s-.45 1-1 1H4c-.55 0-1-.45-1-1s.45-1 1-1zm0-7h16c.55 0 1 .45 1 1v3c0 .55-.45 1-1 1H4c-.55 0-1-.45-1-1v-3c0-.55.45-1 1-1zm0-4h16c.55 0 1 .45 1 1s-.45 1-1 1H4c-.55 0-1-.45-1-1s.45-1 1-1z" transform="translate(-3 -6)"/>
    </g>
</svg>
