<?xml version="1.0" encoding="UTF-8"?>
<svg width="12px" height="12px" viewBox="0 0 12 12" version="1.1" xmlns="http://www.w3.org/2000/svg" xmlns:xlink="http://www.w3.org/1999/xlink">
    <!-- Generator: sketchtool 64 (101010) - https://sketch.com -->
    <title>C8833F75-4906-4517-98E4-063DF34AC3B8</title>
    <desc>Created with sketchtool.</desc>
    <g id="Page-1" stroke="none" stroke-width="1" fill="none" fill-rule="evenodd">
        <g id="Explore" transform="translate(-303.000000, -226.000000)">
            <g id="Group-4" transform="translate(27.000000, 187.000000)">
                <g id="Group-7" transform="translate(266.000000, 29.000000)">
                    <g id="call-24px" transform="translate(8.000000, 8.000000)">
                        <polygon id="Path" points="0 0 16 0 16 16 0 16"></polygon>
                        <path d="M12.82,10.1733333 L11.1266667,9.98 C10.72,9.93333333 10.32,10.0733333 10.0333333,10.36 L8.80666667,11.5866667 C6.92,10.6266667 5.37333333,9.08666667 4.41333333,7.19333333 L5.64666667,5.96 C5.93333333,5.67333333 6.07333333,5.27333333 6.02666667,4.86666667 L5.83333333,3.18666667 C5.75333333,2.51333333 5.18666667,2.00666667 4.50666667,2.00666667 L3.35333333,2.00666667 C2.6,2.00666667 1.97333333,2.63333333 2.02,3.38666667 C2.37333333,9.08 6.92666667,13.6266667 12.6133333,13.98 C13.3666667,14.0266667 13.9933984,13.4 13.9933984,12.6466667 L13.9933984,11.4933333 C14,10.82 13.4933333,10.2533333 12.82,10.1733333 Z" id="Path" fill="#FFFFFF" fill-rule="nonzero"></path>
                    </g>
                </g>
            </g>
        </g>
    </g>
</svg>