<svg xmlns="http://www.w3.org/2000/svg" xmlns:xlink="http://www.w3.org/1999/xlink" width="12" height="12" viewBox="0 0 12 12">
    <defs>
        <path id="prefix__a" d="M0 0H24V24H0z"/>
    </defs>
    <g fill="none" fill-rule="evenodd" transform="translate(-6 -6)">
        <mask id="prefix__b" fill="#fff">
            <use xlink:href="#prefix__a"/>
        </mask>
        <g mask="url(#prefix__b)">
            <g>
                <path d="M5 5L29 5 29 29 5 29z" transform="rotate(45 20.536 8.464) rotate(45 17 17)"/>
                <path fill="#000" fill-rule="nonzero" d="M23 18h-5v5c0 .55-.45 1-1 1s-1-.45-1-1v-5h-5c-.55 0-1-.45-1-1s.45-1 1-1h5v-5c0-.55.45-1 1-1s1 .45 1 1v5h5c.55 0 1 .45 1 1s-.45 1-1 1z" transform="rotate(45 20.536 8.464)"/>
            </g>
        </g>
    </g>
</svg>
