<?xml version="1.0" encoding="UTF-8"?>
<svg width="14px" height="14px" viewBox="0 0 14 14" version="1.1" xmlns="http://www.w3.org/2000/svg" xmlns:xlink="http://www.w3.org/1999/xlink">
    <!-- Generator: sketchtool 64 (101010) - https://sketch.com -->
    <title>FA7799CB-E603-4232-AB54-B741E8A3823F</title>
    <desc>Created with sketchtool.</desc>
    <g id="Page-1" stroke="none" stroke-width="1" fill="none" fill-rule="evenodd">
        <g id="Explore" transform="translate(-260.000000, -225.000000)">
            <g id="Group-4" transform="translate(27.000000, 187.000000)">
                <g id="Group-7" transform="translate(224.000000, 29.000000)">
                    <g id="alternate_email-24px" transform="translate(8.000000, 8.000000)">
                        <polygon id="Path" points="0 0 16 0 16 16 0 16"></polygon>
                        <path d="M8.48,1.35333333 C4.42,1.06666667 1.06666667,4.42 1.35333333,8.48 C1.59333333,12.0066667 4.67333333,14.6666667 8.20666667,14.6666667 L10.6666667,14.6666667 C11.0333333,14.6666667 11.3333333,14.3666667 11.3333333,14 C11.3333333,13.6333333 11.0333333,13.3333333 10.6666667,13.3333333 L8.22,13.3333333 C5.73333333,13.3333333 3.45333333,11.72 2.83333333,9.31333333 C1.84,5.44666667 5.44,1.84 9.30666667,2.84 C11.72,3.45333333 13.3333333,5.73333333 13.3333333,8.22 L13.3333333,8.95333333 C13.3333333,9.48 12.86,10 12.3333333,10 C11.8066667,10 11.3333333,9.48 11.3333333,8.95333333 L11.3333333,8.12 C11.3333333,6.44666667 10.1466667,4.94 8.49333333,4.70666667 C6.22666667,4.38 4.31333333,6.34 4.72,8.62 C4.94666667,9.89333333 5.94,10.9466667 7.2,11.2466667 C8.42666667,11.5333333 9.59333333,11.14 10.36,10.36 C10.9533333,11.1733333 12.14,11.6 13.2266667,11.1666667 C14.12,10.8133333 14.6666667,9.9 14.6666667,8.94 L14.6666667,8.21333333 C14.6666667,4.67333333 12.0066667,1.59333333 8.48,1.35333333 Z M8,10 C6.89333333,10 6,9.10666667 6,8 C6,6.89333333 6.89333333,6 8,6 C9.10666667,6 10,6.89333333 10,8 C10,9.10666667 9.10666667,10 8,10 Z" id="Shape" fill="#FFFFFF" fill-rule="nonzero"></path>
                    </g>
                </g>
            </g>
        </g>
    </g>
</svg>